<mxfile host="app.diagrams.net" modified="2024-05-20T22:52:33.452Z" agent="Mozilla/5.0 (Windows NT 10.0; Win64; x64) AppleWebKit/537.36 (KHTML, like Gecko) Chrome/125.0.0.0 Safari/537.36 Edg/125.0.0.0" etag="4wFigDU1JlztzFiBb4ZU" version="24.4.2" type="github">
  <diagram name="Page-1" id="N8KITqeHm16pR-Cq3Kmk">
    <mxGraphModel dx="746" dy="459" grid="1" gridSize="10" guides="1" tooltips="1" connect="1" arrows="1" fold="1" page="1" pageScale="1" pageWidth="850" pageHeight="1100" math="0" shadow="0">
      <root>
        <mxCell id="0" />
        <mxCell id="1" parent="0" />
        <mxCell id="yYqYvQ4uD8bHLRwxHSZD-1" value="" style="whiteSpace=wrap;html=1;" vertex="1" parent="1">
          <mxGeometry x="100" y="90" width="650" height="580" as="geometry" />
        </mxCell>
        <mxCell id="yYqYvQ4uD8bHLRwxHSZD-2" value="" style="rounded=0;whiteSpace=wrap;html=1;" vertex="1" parent="1">
          <mxGeometry x="120" y="70" width="300" height="520" as="geometry" />
        </mxCell>
        <mxCell id="yYqYvQ4uD8bHLRwxHSZD-3" value="" style="rounded=0;whiteSpace=wrap;html=1;" vertex="1" parent="1">
          <mxGeometry x="430" y="70" width="310" height="520" as="geometry" />
        </mxCell>
        <mxCell id="yYqYvQ4uD8bHLRwxHSZD-4" value="Profile generation" style="text;html=1;whiteSpace=wrap;overflow=hidden;rounded=0;" vertex="1" parent="1">
          <mxGeometry x="520" y="100" width="150" height="30" as="geometry" />
        </mxCell>
        <mxCell id="yYqYvQ4uD8bHLRwxHSZD-5" value="Training Pipeline" style="text;html=1;whiteSpace=wrap;overflow=hidden;rounded=0;" vertex="1" parent="1">
          <mxGeometry x="120" y="40" width="150" height="30" as="geometry" />
        </mxCell>
        <mxCell id="yYqYvQ4uD8bHLRwxHSZD-6" value="Model selection" style="text;html=1;whiteSpace=wrap;overflow=hidden;rounded=0;" vertex="1" parent="1">
          <mxGeometry x="190" y="100" width="150" height="30" as="geometry" />
        </mxCell>
        <mxCell id="yYqYvQ4uD8bHLRwxHSZD-16" value="" style="rounded=0;whiteSpace=wrap;html=1;" vertex="1" parent="1">
          <mxGeometry x="140" y="510" width="250" height="50" as="geometry" />
        </mxCell>
        <mxCell id="yYqYvQ4uD8bHLRwxHSZD-35" style="edgeStyle=orthogonalEdgeStyle;rounded=0;orthogonalLoop=1;jettySize=auto;html=1;exitX=0.5;exitY=1;exitDx=0;exitDy=0;entryX=0.5;entryY=0;entryDx=0;entryDy=0;" edge="1" parent="1" source="yYqYvQ4uD8bHLRwxHSZD-17" target="yYqYvQ4uD8bHLRwxHSZD-16">
          <mxGeometry relative="1" as="geometry" />
        </mxCell>
        <mxCell id="yYqYvQ4uD8bHLRwxHSZD-17" value="" style="rounded=0;whiteSpace=wrap;html=1;" vertex="1" parent="1">
          <mxGeometry x="140" y="440" width="250" height="50" as="geometry" />
        </mxCell>
        <mxCell id="yYqYvQ4uD8bHLRwxHSZD-26" value="" style="edgeStyle=orthogonalEdgeStyle;rounded=0;orthogonalLoop=1;jettySize=auto;html=1;" edge="1" parent="1" source="yYqYvQ4uD8bHLRwxHSZD-18" target="yYqYvQ4uD8bHLRwxHSZD-21">
          <mxGeometry relative="1" as="geometry" />
        </mxCell>
        <object label="" id="yYqYvQ4uD8bHLRwxHSZD-18">
          <mxCell style="rounded=0;whiteSpace=wrap;html=1;" vertex="1" parent="1">
            <mxGeometry x="140" y="150" width="250" height="40" as="geometry" />
          </mxCell>
        </object>
        <mxCell id="yYqYvQ4uD8bHLRwxHSZD-19" value="" style="rounded=0;whiteSpace=wrap;html=1;" vertex="1" parent="1">
          <mxGeometry x="140" y="200" width="250" height="40" as="geometry" />
        </mxCell>
        <mxCell id="yYqYvQ4uD8bHLRwxHSZD-34" style="edgeStyle=orthogonalEdgeStyle;rounded=0;orthogonalLoop=1;jettySize=auto;html=1;exitX=0.5;exitY=1;exitDx=0;exitDy=0;" edge="1" parent="1" source="yYqYvQ4uD8bHLRwxHSZD-20" target="yYqYvQ4uD8bHLRwxHSZD-17">
          <mxGeometry relative="1" as="geometry" />
        </mxCell>
        <mxCell id="yYqYvQ4uD8bHLRwxHSZD-20" value="" style="rounded=0;whiteSpace=wrap;html=1;" vertex="1" parent="1">
          <mxGeometry x="140" y="380" width="250" height="40" as="geometry" />
        </mxCell>
        <mxCell id="yYqYvQ4uD8bHLRwxHSZD-33" style="edgeStyle=orthogonalEdgeStyle;rounded=0;orthogonalLoop=1;jettySize=auto;html=1;exitX=0.5;exitY=1;exitDx=0;exitDy=0;entryX=0.5;entryY=0;entryDx=0;entryDy=0;" edge="1" parent="1" source="yYqYvQ4uD8bHLRwxHSZD-21" target="yYqYvQ4uD8bHLRwxHSZD-22">
          <mxGeometry relative="1" as="geometry" />
        </mxCell>
        <mxCell id="yYqYvQ4uD8bHLRwxHSZD-21" value="" style="rounded=0;whiteSpace=wrap;html=1;" vertex="1" parent="1">
          <mxGeometry x="140" y="260" width="250" height="40" as="geometry" />
        </mxCell>
        <mxCell id="yYqYvQ4uD8bHLRwxHSZD-22" value="" style="rounded=0;whiteSpace=wrap;html=1;" vertex="1" parent="1">
          <mxGeometry x="140" y="320" width="250" height="40" as="geometry" />
        </mxCell>
        <mxCell id="yYqYvQ4uD8bHLRwxHSZD-31" style="edgeStyle=orthogonalEdgeStyle;rounded=0;orthogonalLoop=1;jettySize=auto;html=1;exitX=0.5;exitY=1;exitDx=0;exitDy=0;entryX=0.499;entryY=-0.15;entryDx=0;entryDy=0;entryPerimeter=0;" edge="1" parent="1" source="yYqYvQ4uD8bHLRwxHSZD-22" target="yYqYvQ4uD8bHLRwxHSZD-20">
          <mxGeometry relative="1" as="geometry" />
        </mxCell>
        <mxCell id="yYqYvQ4uD8bHLRwxHSZD-36" style="edgeStyle=orthogonalEdgeStyle;rounded=0;orthogonalLoop=1;jettySize=auto;html=1;exitX=1;exitY=0.5;exitDx=0;exitDy=0;entryX=0;entryY=0.5;entryDx=0;entryDy=0;" edge="1" parent="1" source="yYqYvQ4uD8bHLRwxHSZD-16" target="yYqYvQ4uD8bHLRwxHSZD-37">
          <mxGeometry relative="1" as="geometry">
            <Array as="points">
              <mxPoint x="450" y="535" />
              <mxPoint x="450" y="170" />
            </Array>
          </mxGeometry>
        </mxCell>
        <mxCell id="yYqYvQ4uD8bHLRwxHSZD-50" style="edgeStyle=orthogonalEdgeStyle;rounded=0;orthogonalLoop=1;jettySize=auto;html=1;exitX=0.5;exitY=1;exitDx=0;exitDy=0;entryX=0.5;entryY=0;entryDx=0;entryDy=0;" edge="1" parent="1" source="yYqYvQ4uD8bHLRwxHSZD-37" target="yYqYvQ4uD8bHLRwxHSZD-39">
          <mxGeometry relative="1" as="geometry" />
        </mxCell>
        <mxCell id="yYqYvQ4uD8bHLRwxHSZD-37" value="" style="rounded=0;whiteSpace=wrap;html=1;" vertex="1" parent="1">
          <mxGeometry x="480" y="145" width="240" height="50" as="geometry" />
        </mxCell>
        <mxCell id="yYqYvQ4uD8bHLRwxHSZD-45" style="edgeStyle=orthogonalEdgeStyle;rounded=0;orthogonalLoop=1;jettySize=auto;html=1;exitX=0.5;exitY=1;exitDx=0;exitDy=0;entryX=0.5;entryY=0;entryDx=0;entryDy=0;" edge="1" parent="1" source="yYqYvQ4uD8bHLRwxHSZD-39" target="yYqYvQ4uD8bHLRwxHSZD-40">
          <mxGeometry relative="1" as="geometry" />
        </mxCell>
        <mxCell id="yYqYvQ4uD8bHLRwxHSZD-39" value="" style="rounded=0;whiteSpace=wrap;html=1;" vertex="1" parent="1">
          <mxGeometry x="480" y="210" width="240" height="50" as="geometry" />
        </mxCell>
        <mxCell id="yYqYvQ4uD8bHLRwxHSZD-46" style="edgeStyle=orthogonalEdgeStyle;rounded=0;orthogonalLoop=1;jettySize=auto;html=1;exitX=0.5;exitY=1;exitDx=0;exitDy=0;" edge="1" parent="1" source="yYqYvQ4uD8bHLRwxHSZD-40" target="yYqYvQ4uD8bHLRwxHSZD-41">
          <mxGeometry relative="1" as="geometry" />
        </mxCell>
        <mxCell id="yYqYvQ4uD8bHLRwxHSZD-40" value="" style="rounded=0;whiteSpace=wrap;html=1;" vertex="1" parent="1">
          <mxGeometry x="480" y="270" width="240" height="50" as="geometry" />
        </mxCell>
        <mxCell id="yYqYvQ4uD8bHLRwxHSZD-47" style="edgeStyle=orthogonalEdgeStyle;rounded=0;orthogonalLoop=1;jettySize=auto;html=1;exitX=0.5;exitY=1;exitDx=0;exitDy=0;entryX=0.5;entryY=0;entryDx=0;entryDy=0;" edge="1" parent="1" source="yYqYvQ4uD8bHLRwxHSZD-41" target="yYqYvQ4uD8bHLRwxHSZD-42">
          <mxGeometry relative="1" as="geometry" />
        </mxCell>
        <mxCell id="yYqYvQ4uD8bHLRwxHSZD-41" value="" style="rounded=0;whiteSpace=wrap;html=1;" vertex="1" parent="1">
          <mxGeometry x="480" y="330" width="240" height="50" as="geometry" />
        </mxCell>
        <mxCell id="yYqYvQ4uD8bHLRwxHSZD-48" style="edgeStyle=orthogonalEdgeStyle;rounded=0;orthogonalLoop=1;jettySize=auto;html=1;exitX=0.5;exitY=1;exitDx=0;exitDy=0;entryX=0.5;entryY=0;entryDx=0;entryDy=0;" edge="1" parent="1" source="yYqYvQ4uD8bHLRwxHSZD-42" target="yYqYvQ4uD8bHLRwxHSZD-43">
          <mxGeometry relative="1" as="geometry" />
        </mxCell>
        <mxCell id="yYqYvQ4uD8bHLRwxHSZD-42" value="" style="rounded=0;whiteSpace=wrap;html=1;" vertex="1" parent="1">
          <mxGeometry x="480" y="400" width="240" height="50" as="geometry" />
        </mxCell>
        <mxCell id="yYqYvQ4uD8bHLRwxHSZD-49" style="edgeStyle=orthogonalEdgeStyle;rounded=0;orthogonalLoop=1;jettySize=auto;html=1;exitX=0.5;exitY=1;exitDx=0;exitDy=0;entryX=0.5;entryY=0;entryDx=0;entryDy=0;" edge="1" parent="1" source="yYqYvQ4uD8bHLRwxHSZD-43" target="yYqYvQ4uD8bHLRwxHSZD-44">
          <mxGeometry relative="1" as="geometry" />
        </mxCell>
        <mxCell id="yYqYvQ4uD8bHLRwxHSZD-43" value="" style="rounded=0;whiteSpace=wrap;html=1;" vertex="1" parent="1">
          <mxGeometry x="480" y="490" width="240" height="50" as="geometry" />
        </mxCell>
        <mxCell id="yYqYvQ4uD8bHLRwxHSZD-44" value="" style="rounded=0;whiteSpace=wrap;html=1;" vertex="1" parent="1">
          <mxGeometry x="480" y="600" width="240" height="50" as="geometry" />
        </mxCell>
        <mxCell id="yYqYvQ4uD8bHLRwxHSZD-51" value="Create instance of GetBaseModel" style="text;strokeColor=none;align=center;fillColor=none;html=1;verticalAlign=middle;whiteSpace=wrap;rounded=0;" vertex="1" parent="1">
          <mxGeometry x="150" y="155" width="230" height="30" as="geometry" />
        </mxCell>
        <mxCell id="yYqYvQ4uD8bHLRwxHSZD-52" value="call generate_profile method" style="text;strokeColor=none;align=center;fillColor=none;html=1;verticalAlign=middle;whiteSpace=wrap;rounded=0;" vertex="1" parent="1">
          <mxGeometry x="485" y="220" width="230" height="30" as="geometry" />
        </mxCell>
        <mxCell id="yYqYvQ4uD8bHLRwxHSZD-53" value="Create instance of ProfileGenerator" style="text;strokeColor=none;align=center;fillColor=none;html=1;verticalAlign=middle;whiteSpace=wrap;rounded=0;" vertex="1" parent="1">
          <mxGeometry x="485" y="155" width="230" height="30" as="geometry" />
        </mxCell>
        <mxCell id="yYqYvQ4uD8bHLRwxHSZD-54" value="call&amp;nbsp;&lt;code&gt;compare_get_best_model method&lt;/code&gt;" style="text;strokeColor=none;align=center;fillColor=none;html=1;verticalAlign=middle;whiteSpace=wrap;rounded=0;" vertex="1" parent="1">
          <mxGeometry x="140" y="205" width="230" height="30" as="geometry" />
        </mxCell>
        <mxCell id="yYqYvQ4uD8bHLRwxHSZD-55" value="Get best matrices and hyper parameters" style="text;strokeColor=none;align=center;fillColor=none;html=1;verticalAlign=middle;whiteSpace=wrap;rounded=0;" vertex="1" parent="1">
          <mxGeometry x="150" y="385" width="230" height="30" as="geometry" />
        </mxCell>
        <mxCell id="yYqYvQ4uD8bHLRwxHSZD-56" value="call method get_beta_info" style="text;strokeColor=none;align=center;fillColor=none;html=1;verticalAlign=middle;whiteSpace=wrap;rounded=0;" vertex="1" parent="1">
          <mxGeometry x="485" y="280" width="230" height="30" as="geometry" />
        </mxCell>
        <mxCell id="yYqYvQ4uD8bHLRwxHSZD-57" value="Tune best model with PyCaret" style="text;strokeColor=none;align=center;fillColor=none;html=1;verticalAlign=middle;whiteSpace=wrap;rounded=0;" vertex="1" parent="1">
          <mxGeometry x="150" y="325" width="230" height="30" as="geometry" />
        </mxCell>
        <mxCell id="yYqYvQ4uD8bHLRwxHSZD-58" value="Create profile" style="text;strokeColor=none;align=center;fillColor=none;html=1;verticalAlign=middle;whiteSpace=wrap;rounded=0;" vertex="1" parent="1">
          <mxGeometry x="150" y="520" width="230" height="30" as="geometry" />
        </mxCell>
        <mxCell id="yYqYvQ4uD8bHLRwxHSZD-59" value="compare best model using PyCaret" style="text;strokeColor=none;align=center;fillColor=none;html=1;verticalAlign=middle;whiteSpace=wrap;rounded=0;" vertex="1" parent="1">
          <mxGeometry x="140" y="265" width="230" height="30" as="geometry" />
        </mxCell>
        <mxCell id="yYqYvQ4uD8bHLRwxHSZD-60" value="Extract feature importance from tuned model" style="text;strokeColor=none;align=center;fillColor=none;html=1;verticalAlign=middle;whiteSpace=wrap;rounded=0;" vertex="1" parent="1">
          <mxGeometry x="140" y="450" width="250" height="30" as="geometry" />
        </mxCell>
        <mxCell id="yYqYvQ4uD8bHLRwxHSZD-61" value="calculate profile statistics and generate final dataframe" style="text;strokeColor=none;align=center;fillColor=none;html=1;verticalAlign=middle;whiteSpace=wrap;rounded=0;" vertex="1" parent="1">
          <mxGeometry x="485" y="500" width="230" height="30" as="geometry" />
        </mxCell>
        <mxCell id="yYqYvQ4uD8bHLRwxHSZD-62" value="filter profile based on beta ratio" style="text;strokeColor=none;align=center;fillColor=none;html=1;verticalAlign=middle;whiteSpace=wrap;rounded=0;" vertex="1" parent="1">
          <mxGeometry x="485" y="410" width="230" height="30" as="geometry" />
        </mxCell>
        <mxCell id="yYqYvQ4uD8bHLRwxHSZD-63" value="&#xa;&lt;span style=&quot;color: rgb(0, 0, 0); font-family: Helvetica; font-size: 12px; font-style: normal; font-variant-ligatures: normal; font-variant-caps: normal; font-weight: 400; letter-spacing: normal; orphans: 2; text-align: center; text-indent: 0px; text-transform: none; widows: 2; word-spacing: 0px; -webkit-text-stroke-width: 0px; white-space: normal; background-color: rgb(251, 251, 251); text-decoration-thickness: initial; text-decoration-style: initial; text-decoration-color: initial; display: inline !important; float: none;&quot;&gt;get limits from API&lt;span&gt;&amp;nbsp;&lt;/span&gt;&lt;/span&gt;&#xa;&#xa;" style="text;strokeColor=none;align=center;fillColor=none;html=1;verticalAlign=middle;whiteSpace=wrap;rounded=0;" vertex="1" parent="1">
          <mxGeometry x="480" y="350" width="230" height="30" as="geometry" />
        </mxCell>
        <mxCell id="yYqYvQ4uD8bHLRwxHSZD-65" value="return tuned model ,best matrices,hyperparameters and profile report" style="text;strokeColor=none;align=center;fillColor=none;html=1;verticalAlign=middle;whiteSpace=wrap;rounded=0;" vertex="1" parent="1">
          <mxGeometry x="485" y="610" width="230" height="30" as="geometry" />
        </mxCell>
      </root>
    </mxGraphModel>
  </diagram>
</mxfile>
